<svg width="800" height="800" viewBox="0 0 24 24" data-name="Flat Line" xmlns="http://www.w3.org/2000/svg" class="icon flat-line"><path d="M20 3H9a1 1 0 0 0-1 1v3a5 5 0 0 1 0 10v3a1 1 0 0 0 1 1h11a1 1 0 0 0 1-1V4a1 1 0 0 0-1-1Z" style="fill:#2ca9bc;stroke-width:2"/><path d="M8 17v3a1 1 0 0 0 1 1h11a1 1 0 0 0 1-1V4a1 1 0 0 0-1-1H9a1 1 0 0 0-1 1v3" style="fill:none;stroke:#000;stroke-linecap:round;stroke-linejoin:round;stroke-width:2"/><path data-name="primary" d="M13 12a5 5 0 1 1-5-5 5 5 0 0 1 5 5Zm-5-2v2H7" style="fill:none;stroke:#000;stroke-linecap:round;stroke-linejoin:round;stroke-width:2"/></svg>