<svg width="800" height="800" viewBox="0 0 64 64" fill="none" xmlns="http://www.w3.org/2000/svg"><path fill-rule="evenodd" clip-rule="evenodd" d="m12.047 25.597 16.834-7.053L40.673 46.23l-16.86 7.152-11.766-27.785Z" fill="#2A2941"/><path fill-rule="evenodd" clip-rule="evenodd" d="m14.23 21.47 16.834-7.052 11.791 27.76-16.884 7.153-11.741-27.86Z" fill="#fff"/><path fill-rule="evenodd" clip-rule="evenodd" d="m31.49 13.367-18.34 7.678 12.394 29.286 18.365-7.778L31.49 13.367Zm-16.207 8.554 15.33-6.428 11.164 26.21-15.405 6.503L15.258 21.92h.025Z" fill="#2A2941"/><path fill-rule="evenodd" clip-rule="evenodd" d="M26.372 23.196a6.59 6.59 0 0 0-1.906.75l.25 1.326a4.95 4.95 0 0 0-1.254 1.35l-1.33-.175a6.535 6.535 0 0 0-.602 1.951l1.18.6a4.584 4.584 0 0 0 .3 1.826l-.953.95a5.97 5.97 0 0 0 1.18 1.676l1.229-.525c.476.4 1.028.7 1.605.9l.176 1.326c.677.175 1.355.2 2.032.15l.351-1.3a5.293 5.293 0 0 0 1.706-.676l1.18.7a6.565 6.565 0 0 0 1.38-1.5l-.829-1.076c.301-.55.477-1.15.527-1.75l1.28-.45a5.486 5.486 0 0 0-.326-2.001h-1.355a4.896 4.896 0 0 0-1.054-1.526l.452-1.25a5.945 5.945 0 0 0-1.782-1l-.878 1.024a5.12 5.12 0 0 0-1.856-.124l-.703-1.176Zm0 2.726c.878-.35 1.832-.325 2.71.025.853.375 1.555 1.05 1.907 1.9.175.426.25.876.25 1.351 0 .45-.1.926-.3 1.326-.176.425-.452.8-.778 1.125a3.531 3.531 0 0 1-1.154.75c-.878.35-1.832.326-2.71-.025a3.544 3.544 0 0 1-1.881-1.925c-.352-.876-.327-1.826.025-2.701a3.544 3.544 0 0 1 1.931-1.876v.05Z" fill="#FEC34E"/><path fill-rule="evenodd" clip-rule="evenodd" d="m26.874 22.87-.226-.35-.401.076c-.728.175-1.43.45-2.082.825l-.352.2.276 1.35c-.326.3-.627.626-.878.976l-1.405-.15-.175.35a7.193 7.193 0 0 0-.652 2.126v.4l1.254.65c.025.425.1.876.2 1.3l-1.003 1.001.176.375c.326.676.752 1.3 1.28 1.826l.275.3 1.28-.575c.35.275.752.475 1.179.65l.175 1.376.402.1c.727.175 1.48.225 2.233.15h.401l.351-1.35c.427-.126.853-.276 1.23-.5l1.179.724.326-.25a6.509 6.509 0 0 0 1.455-1.65l.226-.35-.853-1.176c.175-.4.3-.825.376-1.25l1.33-.476v-.425a6.04 6.04 0 0 0-.351-2.2l-.126-.4H32.57c-.2-.4-.451-.751-.752-1.076l.451-1.326-.326-.25a7.558 7.558 0 0 0-1.957-1.1l-.376-.15-.903 1.05a5.846 5.846 0 0 0-1.33-.1l-.527-.825.025.125Zm-.502.326a6.59 6.59 0 0 0-1.906.75l.25 1.326a4.948 4.948 0 0 0-1.254 1.35l-1.33-.15c-.3.6-.501 1.25-.602 1.926l1.18.625a4.584 4.584 0 0 0 .3 1.826l-.953.95a5.972 5.972 0 0 0 1.18 1.676l1.229-.525c.476.4 1.028.7 1.605.9l.176 1.326c.677.175 1.355.2 2.032.15l.351-1.3a5.074 5.074 0 0 0 1.706-.676l1.18.7a6.562 6.562 0 0 0 1.38-1.5l-.829-1.076c.301-.55.477-1.15.527-1.75l1.28-.45a5.486 5.486 0 0 0-.326-2.001h-1.355a4.52 4.52 0 0 0-1.054-1.501l.452-1.275a7.377 7.377 0 0 0-1.782-1l-.878 1.024a5.142 5.142 0 0 0-1.856-.125l-.703-1.2Zm0 2.726c.878-.35 1.832-.325 2.71.025.853.375 1.555 1.05 1.907 1.9.175.426.25.876.25 1.351 0 .45-.1.926-.3 1.326-.176.425-.452.8-.778 1.125a3.533 3.533 0 0 1-1.154.75 3.111 3.111 0 0 1-1.355.25c-.452 0-.928-.1-1.355-.275a3.498 3.498 0 0 1-1.129-.775 3.52 3.52 0 0 1-.752-1.15 3.61 3.61 0 0 1-.276-1.35c0-.476.1-.926.276-1.351.175-.425.451-.826.777-1.126a3.533 3.533 0 0 1 1.154-.75v.05h.025Zm.226.575a2.88 2.88 0 0 1 2.233.025c.728.3 1.28.876 1.58 1.6.151.351.226.726.201 1.126 0 .375-.075.75-.225 1.1-.151.35-.377.676-.653.926a2.562 2.562 0 0 1-.953.6 2.996 2.996 0 0 1-2.233-.025 2.996 2.996 0 0 1-1.58-1.6c-.151-.35-.201-.726-.201-1.126 0-.375.075-.75.25-1.1.151-.35.377-.675.653-.925.25-.25.577-.476.928-.6Zm-4.064-5.402 2.509-1.025-.377-.925-2.508 1.025.376.925Zm19.318 13.73 3.512-1.475 3.588 1.9-2.333 5.078-5.57-1.651.803-3.902v.05Zm-4.34-9.753 3.512-1.5 3.587 1.925-2.333 5.052-5.62-1.576.803-3.901h.05Zm-4.14-9.954 3.512-1.5 3.588 1.9-2.333 5.077-5.62-1.6.778-3.902h.075v.025Z" fill="#2A2941"/><path fill-rule="evenodd" clip-rule="evenodd" d="m43.608 32.65 3.512-1.5 3.588 1.9-2.333 5.077-5.62-1.6.778-3.902h.075v.025Z" fill="#A694FE"/><path fill-rule="evenodd" clip-rule="evenodd" d="m47.196 30.249-4.29 1.8-1.029 5.077 7 1.976 2.91-6.402-4.591-2.451Zm-2.86 2.976 2.784-1.175 2.56 1.375-1.707 3.726-4.214-1.175.577-2.751Z" fill="#2A2941"/><path fill-rule="evenodd" clip-rule="evenodd" d="m39.218 22.871 3.512-1.476 3.588 1.901-2.334 5.052-5.62-1.575.778-3.902h.076Z" fill="#FEC34E"/><path fill-rule="evenodd" clip-rule="evenodd" d="m42.855 20.495-4.29 1.8-1.028 5.053 7 2 2.935-6.402-4.617-2.45Zm-2.86 2.951 2.785-1.175 2.56 1.375-1.707 3.727-4.19-1.15.552-2.777Z" fill="#2A2941"/><path fill-rule="evenodd" clip-rule="evenodd" d="m35.178 12.917 3.513-1.5 3.587 1.925-2.333 5.077-5.595-1.6.778-3.902h.05Z" fill="#4C5EFD"/><path fill-rule="evenodd" clip-rule="evenodd" d="m38.766 10.541-4.29 1.8-1.029 5.053 7 2 2.91-6.402-4.591-2.45Zm-2.86 2.976 2.785-1.175 2.559 1.35-1.706 3.727-4.215-1.176.577-2.726Z" fill="#2A2941"/><path d="m30.913 42.978-.476-.5-1.932.8v.7c.025.201.025.376 0 .576-.025.05-.05.1-.1.15-.05.05-.1.075-.15.1a.491.491 0 0 1-.377 0c-.05-.025-.126-.05-.15-.1a.525.525 0 0 1-.101-.15c-.025-.075-.025-.15 0-.2v-4.277a.824.824 0 0 1 0-.35c.025-.1.075-.2.15-.3a.5.5 0 0 1 .301-.2.66.66 0 0 1 .377-.05c.1 0 .2.05.3.1.101.05.176.125.252.2l.3.3 2.51 2.526c.15.125.276.275.35.45.051.126.026.25-.024.376-.05.125-.15.2-.276.25a.277.277 0 0 1-.201 0c-.075 0-.125-.025-.176-.05a1.26 1.26 0 0 1-.2-.175l-.226-.2-.15.024Zm-2.458-.525 1.43-.575-1.53-1.65.1 2.225Zm5.494-2.25-.878.35.552 1.35c.05.15.05.325 0 .5a.542.542 0 0 1-.301.276.555.555 0 0 1-.402 0c-.15-.076-.25-.226-.326-.376l-1.455-3.601a.481.481 0 0 1-.075-.25c0-.1 0-.175.05-.25.025-.075.1-.15.176-.2.075-.05.15-.1.25-.1l1.23-.5c.276-.126.577-.2.878-.25.2-.026.401-.026.602.05.2.05.376.175.502.325.15.15.276.35.351.55.1.2.15.425.15.625 0 .225-.05.45-.15.625-.25.4-.652.726-1.154.876Zm-1.154-2.051-.652.275.602 1.45.652-.275c.2-.075.376-.175.552-.3.126-.1.2-.225.25-.375a.769.769 0 0 0 0-.475.519.519 0 0 0-.15-.25.901.901 0 0 0-.25-.175 1.403 1.403 0 0 0-.954.125h-.05Zm4.34 2.326-1.53-3.702a.848.848 0 0 1 0-.5.473.473 0 0 1 .301-.275.556.556 0 0 1 .401 0c.15.075.276.2.326.375l1.53 3.701c.051.15.051.35 0 .5a.542.542 0 0 1-.3.276.555.555 0 0 1-.402 0 .682.682 0 0 1-.326-.375Z" fill="#4C5EFD"/></svg>