<?xml version="1.0" encoding="UTF-8"?><svg id="uuid-d2c96305-14df-4811-8962-c07f0efb7a41" xmlns="http://www.w3.org/2000/svg" viewBox="0 0 505.93 417.85"><path d="M116.3,416.23c-30.6,4.48-56.08-.38-76.45-14.59-20.36-14.2-32.9-37.38-37.6-69.51-3.05-20.8-3.01-41.36,.11-61.67,3.12-20.3,9.53-38.98,19.22-56.03,9.69-17.04,22.75-31.38,39.18-43.01,16.42-11.62,36.41-19.16,59.98-22.61,28.15-4.12,50.73-.94,67.74,9.54,17.01,10.48,27.03,26.13,30.08,46.93,3.94,26.93-4.35,50.33-24.88,70.22-20.53,19.88-54.82,33.34-102.86,40.38l-11.93,1.75c-.04,1.88,.15,4.2,.55,6.95,3.76,25.7,19.26,36.56,46.5,32.57,13.15-1.93,25.01-5.3,35.55-10.13,10.54-4.83,22.34-11.78,35.39-20.89l8.13,55.54c-12.48,8.71-25.49,15.92-39.02,21.65-13.54,5.73-30.1,10.03-49.68,12.9Zm-36.86-149.32l8.26-1.21c22.95-3.36,38.76-9.58,47.43-18.67,8.67-9.08,12.31-18.37,10.92-27.85-1.88-12.85-9.86-18.25-23.94-16.19-7.65,1.12-14.61,4.8-20.89,11.03-6.28,6.24-11.39,14.02-15.34,23.34-3.95,9.33-6.1,19.18-6.46,29.54Z"/><path d="M263.42,390.01L286.25,30.36l76.19-11.15-22.83,359.65-76.19,11.15Z"/><path d="M405.7,369.18l16.35-259.78,76.65-11.22-16.81,259.85-76.19,11.16Zm60.9-294.9c-10.71,1.57-20.06,.67-28.05-2.69-7.99-3.36-12.77-10.39-14.34-21.11-2.06-14.07,.34-25.37,7.23-33.88,6.88-8.51,17.51-13.81,31.89-15.92,10.1-1.48,19.22-.54,27.37,2.79,8.14,3.34,13,10.37,14.57,21.07,1.88,12.85-.27,23.8-6.45,32.82-6.18,9.04-16.92,14.67-32.22,16.91Z"/></svg>